<svg viewBox="0 0 800 800" xmlns="http://www.w3.org/2000/svg"><path d="M504.6825942471103,363.9531097204135 L504.79503462063616,285.9872163329058 M571.9223533685326,325.089034385487 L572.1093382381696,247.1665633389594 M504.6825942471103,363.9531097204135 L571.9223533685326,325.089034385487 M504.79503462063616,285.9872163329058 L572.1093382381696,247.1665633389594 M504.4584610260874,286.3110844252639 L504.57040332532813,208.43203492181593 M571.9223533685326,325.089034385487 L504.4584610260874,286.3110844252639 M572.1093382381696,247.1665633389594 L504.57040332532813,208.43203492181593 M437.2184532821236,325.089034385487 L437.2558502560511,247.1665633389594 M504.4584610260874,286.3110844252639 L437.2184532821236,325.089034385487 M504.57040332532813,208.43203492181593 L437.2558502560511,247.1665633389594 M437.2184532821236,325.089034385487 L504.6825942471103,363.9531097204135 M437.2558502560511,247.1665633389594 L504.79503462063616,285.9872163329058" stroke="black"  stroke-width="4"  fill="red"/>
<path d="M403.5424782605214,344.5102884582402 L403.5424782605214,266.56610632121203 M336.0782749672449,383.4175341173225 L336.00323135957717,305.42992935907296 M403.5424782605214,344.5102884582402 L336.0782749672449,383.4175341173225 M403.5424782605214,266.56610632121203 L336.00323135957717,305.42992935907296 M403.5424782605214,422.4113364964473 L403.5424782605214,344.380308795682 M336.0782749672449,383.4175341173225 L403.5424782605214,422.4113364964473 M336.00323135957717,305.42992935907296 L403.5424782605214,344.380308795682 M471.00668155379793,383.4175341173225 L471.0817251614656,305.42992935907296 M403.5424782605214,422.4113364964473 L471.00668155379793,383.4175341173225 M403.5424782605214,344.380308795682 L471.0817251614656,305.42992935907296 M471.00668155379793,383.4175341173225 L403.5424782605214,344.5102884582402 M471.0817251614656,305.42992935907296 L403.5424782605214,266.56610632121203" stroke="black"  stroke-width="4"  fill="red"/>
<path d="M302.2899219004066,402.9035976742059 L302.17723124224284,324.8942814648465 M234.6003998967238,441.9407867697986 L234.4121635977112,363.8880475775826 M302.2899219004066,402.9035976742059 L234.6003998967238,441.9407867697986 M302.17723124224284,324.8942814648465 L234.4121635977112,363.8880475775826 M302.0642894628353,481.0649668160221 L301.95109572184515,402.9688048026729 M234.6003998967238,441.9407867697986 L302.0642894628353,481.0649668160221 M234.4121635977112,363.8880475775826 L301.95109572184515,402.9688048026729 M369.7540625877619,441.9407867697986 L369.7164153279594,363.8880475775826 M302.0642894628353,481.0649668160221 L369.7540625877619,441.9407867697986 M301.95109572184515,402.9688048026729 L369.7164153279594,363.8880475775826 M369.7540625877619,441.9407867697986 L302.2899219004066,402.9035976742059 M369.7164153279594,363.8880475775826 L302.17723124224284,324.8942814648465" stroke="black"  stroke-width="4"  fill="red"/>
<path d="M382.1399615679789,303.3567318656165 L382.116208973278,225.45858378631846 M334.3412080711473,275.81342600415945 L334.26446878479294,197.9461476311334 M382.1399615679789,303.3567318656165 L334.3412080711473,275.81342600415945 M382.116208973278,225.45858378631846 L334.26446878479294,197.9461476311334 M340.68596482873403,272.1656805740402 L340.61626870981326,194.30249409025552 M334.3412080711473,275.81342600415945 L340.68596482873403,272.1656805740402 M334.26446878479294,197.9461476311334 L340.61626870981326,194.30249409025552 M362.7704008309472,284.8888421439253 L362.7251757429595,207.0113870060065 M340.68596482873403,272.1656805740402 L362.7704008309472,284.8888421439253 M340.61626870981326,194.30249409025552 L362.7251757429595,207.0113870060065 M386.88812035015206,271.01292458186686 L386.8696543915357,193.1510313872476 M362.7704008309472,284.8888421439253 L386.88812035015206,271.01292458186686 M362.7251757429595,207.0113870060065 L386.8696543915357,193.1510313872476 M364.80367286065086,258.2998599256472 L364.7607358328476,180.452235240175 M386.88812035015206,271.01292458186686 L364.80367286065086,258.2998599256472 M386.8696543915357,193.1510313872476 L364.7607358328476,180.452235240175 M371.1092343482031,254.67464875060068 L371.07328996652546,176.83109469849052 M364.80367286065086,258.2998599256472 L371.1092343482031,254.67464875060068 M364.7607358328476,180.452235240175 L371.07328996652546,176.83109469849052 M418.9080135091494,282.1846315144122 L418.9250559046027,204.31020821100594 M371.1092343482031,254.67464875060068 L418.9080135091494,282.1846315144122 M371.07328996652546,176.83109469849052 L418.9250559046027,204.31020821100594 M412.60245011073926,285.8155560261494 L412.6124998537056,207.9370620066073 M418.9080135091494,282.1846315144122 L412.60245011073926,285.8155560261494 M418.9250559046027,204.31020821100594 L412.6124998537056,207.9370620066073 M392.04237696425804,273.980007983932 L392.02962483969617,196.1147861576211 M412.60245011073926,285.8155560261494 L392.04237696425804,273.980007983932 M412.6124998537056,207.9370620066073 L392.02962483969617,196.1147861576211 M367.9246556825045,287.85828257890654 L367.8851444227005,209.9774987772098 M392.04237696425804,273.980007983932 L367.9246556825045,287.85828257890654 M392.02962483969617,196.1147861576211 L367.8851444227005,209.9774987772098 M388.48472525689795,299.70323470070275 L388.46801585272146,221.80917858438562 M367.9246556825045,287.85828257890654 L388.48472525689795,299.70323470070275 M367.8851444227005,209.9774987772098 L388.46801585272146,221.80917858438562 M388.48472525689795,299.70323470070275 L382.1399615679789,303.3567318656165 M388.46801585272146,221.80917858438562 L382.116208973278,225.45858378631846" stroke="black"  stroke-width="4"  fill="red"/>
<path d="M188.63996737445152,410.0414115816507 L188.40073944718156,332.0241484144082 M234.78821766033005,402.9035976742059 L234.6003998967238,324.8942814648465 M188.63996737445152,410.0414115816507 L234.78821766033005,402.9035976742059 M188.40073944718156,332.0241484144082 L234.6003998967238,324.8942814648465 M247.26055394816137,376.2905525295215 L247.08674959230817,298.3108946948368 M234.78821766033005,402.9035976742059 L247.26055394816137,376.2905525295215 M234.6003998967238,324.8942814648465 L247.08674959230817,298.3108946948368 M213.64078973184326,356.83403960323415 L213.4297135129383,278.87609309989153 M247.26055394816137,376.2905525295215 L213.64078973184326,356.83403960323415 M247.08674959230817,298.3108946948368 L213.4297135129383,278.87609309989153 M167.54887429181403,363.9531097204135 L167.2865134202535,285.9872163329058 M213.64078973184326,356.83403960323415 L167.54887429181403,363.9531097204135 M213.4297135129383,278.87609309989153 L167.2865134202535,285.9872163329058 M155.02041955983248,390.54741851737396 L154.74392049246725,312.5518668206495 M167.54887429181403,363.9531097204135 L155.02041955983248,390.54741851737396 M167.2865134202535,285.9872163329058 L154.74392049246725,312.5518668206495 M155.02041955983248,390.54741851737396 L188.63996737445152,410.0414115816507 M154.74392049246725,312.5518668206495 L188.40073944718156,332.0241484144082" stroke="black"  stroke-width="4"  fill="red"/>
<path d="M336.2278630011546,305.6893116365395 L336.1531519964272,227.78855148099336 M268.7638257323331,344.5102884582402 L268.6140716739684,266.56610632121203 M336.2278630011546,305.6893116365395 L343.29559948294786,310.89357667321656 M343.29559948294786,310.89357667321656 L347.9961158827262,316.92431331455265 M347.9961158827262,316.92431331455265 L350.05522049027996,323.43169073939964 M350.05522049027996,323.43169073939964 L349.35181164552125,330.0378386393119 M349.35181164552125,330.0378386393119 L345.92525464125237,336.35872682247276 M345.92525464125237,336.35872682247276 L339.9734355331415,342.02651242396325 M339.9734355331415,342.02651242396325 L331.8415341665095,346.7110199005208 M331.8415341665095,346.7110199005208 L322.0021488777188,350.13912027651986 M322.0021488777188,350.13912027651986 L311.0278288396277,352.11080797437984 M311.0278288396277,352.11080797437984 L299.5576157954931,352.51099111945103 M299.5576157954931,352.51099111945103 L288.25963673680644,351.3163042781073 M288.25963673680644,351.3163042781073 L277.79191710998265,348.5964943724574 M277.79191710998265,348.5964943724574 L268.7638257323331,344.5102884582402 M336.1531519964272,227.78855148099336 L343.22872284283045,232.98698990571012 M343.22872284283045,232.98698990571012 L347.9344463777994,239.01097677822537 M347.9344463777994,239.01097677822537 L349.99582601833896,245.5110735506243 M349.99582601833896,245.5110735506243 L349.29162470713374,252.10983303644764 M349.29162470713374,252.10983303644764 L345.86125042358793,258.4236544340855 M345.86125042358793,258.4236544340855 L339.90280827906696,264.0851055757911 M339.90280827906696,264.0851055757911 L331.76186143829943,268.7643790660248 M331.76186143829943,268.7643790660248 L321.9115339317358,272.18865011711205 M321.9115339317358,272.18865011711205 L310.9250124479305,274.1581356985907 M310.9250124479305,274.1581356985907 L299.4420506313698,274.55787192169646 M299.4420506313698,274.55787192169646 L288.13151976628143,273.36451932902685 M288.13151976628143,273.36451932902685 L277.6521779413714,270.64774729555063 M277.6521779413714,270.64774729555063 L268.6140716739684,266.56610632121203 M268.7638257323331,344.5102884582402 L261.70039057538355,339.296013611805 M261.70039057538355,339.296013611805 L257.0117591710856,333.25756684590255 M257.0117591710856,333.25756684590255 L254.96938915371334,326.74653872136855 M254.96938915371334,326.74653872136855 L255.69053715118437,320.14162931841497 M255.69053715118437,320.14162931841497 L259.1317918012229,313.826595362325 M259.1317918012229,313.826595362325 L265.0918936011972,308.1679348899421 M265.0918936011972,308.1679348899421 L273.2237652235494,303.49373298406493 M273.2237652235494,303.49373298406493 L283.05481514259344,300.0747577347331 M283.05481514259344,300.0747577347331 L294.01440373170476,298.1089242732941 M294.01440373170476,298.1089242732941 L305.4668704409302,297.70998702628253 M305.4668704409302,297.70998702628253 L316.7481360001505,298.90101575857943 M316.7481360001505,298.90101575857943 L327.2040151685879,301.61310813219495 M327.2040151685879,301.61310813219495 L336.2278630011546,305.6893116365395 M268.6140716739684,266.56610632121203 L261.542811750208,261.35765818359556 M261.542811750208,261.35765818359556 L256.8489996394644,255.32596125385425 M256.8489996394644,255.32596125385425 L254.80439178167586,248.82221381149282 M254.80439178167586,248.82221381149282 L255.52637166907107,242.22469281525758 M255.52637166907107,242.22469281525758 L258.97147624100865,235.9167255904402 M258.97147624100865,235.9167255904402 L264.9382194540641,230.26439949328523 M264.9382194540641,230.26439949328523 L273.0791364513551,225.59543147824286 M273.0791364513551,225.59543147824286 L282.92111003581726,222.18028546927712 M282.92111003581726,222.18028546927712 L293.89286731527653,220.21665406998176 M293.89286731527653,220.21665406998176 L305.35804334948494,219.81816372928637 M305.35804334948494,219.81816372928637 L316.65182359287,221.00785825090662 M316.65182359287,221.00785825090662 L327.1192986791895,223.71691282795726 M327.1192986791895,223.71691282795726 L336.1531519964272,227.78855148099336" stroke="black"  stroke-width="4"  fill="red"/>
<path d="M504.79503462063616,402.9035976742059 L504.90772527879994,324.8942814648465 M437.3308939332809,441.9407867697986 L437.36854119308344,363.8880475775826 M504.79503462063616,402.9035976742059 L437.3308939332809,441.9407867697986 M504.90772527879994,324.8942814648465 L437.36854119308344,363.8880475775826 M505.0206670582075,481.0649668160221 L505.13386079919763,402.9688048026729 M437.3308939332809,441.9407867697986 L505.0206670582075,481.0649668160221 M437.36854119308344,363.8880475775826 L505.13386079919763,402.9688048026729 M572.4845566243191,441.9407867697986 L572.6727929233316,363.8880475775826 M505.0206670582075,481.0649668160221 L572.4845566243191,441.9407867697986 M505.13386079919763,402.9688048026729 L572.6727929233316,363.8880475775826 M572.4845566243191,441.9407867697986 L504.79503462063616,402.9035976742059 M572.6727929233316,363.8880475775826 L504.90772527879994,324.8942814648465 M521.7690375783634,432.1733454369793 L521.9007296522345,354.13146198797153 M488.0370273336481,451.7136650307186 L488.1311979093775,373.65007010538795 M521.7690375783634,432.1733454369793 L525.3292771563117,434.79413889565103 M525.3292771563117,434.79413889565103 L527.7033982836422,437.8306417093989 M527.7033982836422,437.8306417093989 L528.7531768278823,441.10655045614465 M528.7531768278823,441.10655045614465 L528.4172414141949,444.43156079021327 M528.4172414141949,444.43156079021327 L526.7147380132792,447.61241030036035 M526.7147380132792,447.61241030036035 L523.7442921943095,450.4641133628169 M523.7442921943095,450.4641133628169 L519.6783518800926,452.8207402115183 M519.6783518800926,452.8207402115183 L514.7532143324245,454.54510942767763 M514.7532143324245,454.54510942767763 L509.2552925668888,455.53681208591473 M509.2552925668888,455.53681208591473 L503.5044221095225,455.7380878600161 M503.5044221095225,455.7380878600161 L497.8352016817611,455.13720982018964 M497.8352016817611,455.13720982018964 L492.57746499544743,453.76917939089066 M492.57746499544743,453.76917939089066 L488.0370273336481,451.7136650307186 M521.9007296522345,354.13146198797153 L525.4649451054424,356.74934204707824 M525.4649451054424,356.74934204707824 L527.8417229305444,359.7824698833106 M527.8417229305444,359.7824698833106 L528.8926840373535,363.0547382158002 M528.8926840373535,363.0547382158002 L528.5563875210403,366.37605426622997 M528.5563875210403,366.37605426622997 L526.8519994915746,369.5533703198819 M526.8519994915746,369.5533703198819 L523.8782543374159,372.4019061044566 M523.8782543374159,372.4019061044566 L519.8077913208513,374.75591592659276 M519.8077913208513,374.75591592659276 L514.8771705443442,376.4783704593109 M514.8771705443442,376.4783704593109 L509.3731240896085,377.468972048575 M509.3731240896085,377.468972048575 L503.61584413248465,377.6700243575475 M503.61584413248465,377.6700243575475 L497.9403027399636,377.0698134462962 M497.9403027399636,377.0698134462962 L492.6767017779021,375.70330196665066 M492.6767017779021,375.70330196665066 L488.1311979093775,373.65007010538795 M488.0370273336481,451.7136650307186 L484.47785732942896,449.09034490451944 M484.47785732942896,449.09034490451944 L482.10671448327065,446.05189425381343 M482.10671448327065,446.05189425381343 L481.06114063668986,442.77506272486374 M481.06114063668986,442.77506272486374 L481.4015374672165,439.4503623340365 M481.4015374672165,439.4503623340365 L483.1077483771791,436.27099108884886 M483.1077483771791,436.27099108884886 L486.08029199969263,433.42159223477097 M486.08029199969263,433.42159223477097 L490.14623982639495,431.0675676702421 M490.14623982639495,431.0675676702421 L495.0692928742524,429.3455026611271 M495.0692928742524,429.3455026611271 L500.5635156652728,428.35527826958753 M500.5635156652728,428.35527826958753 L506.3099265161225,428.1543198936663 M506.3099265161225,428.1543198936663 L511.97493691803567,428.7542751522129 M511.97493691803567,428.7542751522129 L517.2296840774193,430.1203577454602 M517.2296840774193,430.1203577454602 L521.7690375783634,432.1733454369793 M488.1311979093775,373.65007010538795 L484.5680544065335,371.0296633740629 M484.5680544065335,371.0296633740629 L482.19426149686115,367.99458769725646 M482.19426149686115,367.99458769725646 L481.1475144597562,364.7213965808499 M481.1475144597562,364.7213965808499 L481.4882823485233,361.4003904783849 M481.4882823485233,361.4003904783849 L483.19638615826307,358.22455269243665 M483.19638615826307,358.22455269243665 L486.17223380076956,355.3783211205183 M486.17223380076956,355.3783211205183 L490.2427043549594,353.0269135873863 M490.2427043549594,353.0269135873863 L495.17123599137113,351.3067632659911 M495.17123599137113,351.3067632659911 L500.6715752289237,350.3176399461695 M500.6715752289237,350.3176399461695 L506.42438562997364,350.1169050318184 M506.42438562997364,350.1169050318184 L512.0957076067707,350.7161931600763 M512.0957076067707,350.7161931600763 L517.3563123700128,352.08075680005317 M517.3563123700128,352.08075680005317 L521.9007296522345,354.13146198797153" stroke="black"  stroke-width="4"  fill="red"/>
<path d="M420.4602221902926,490.8596382486027 L420.47909833414735,412.7526205933335 M386.61530152119917,510.4653647292074 L386.5964043102147,432.3366359019069 M420.4602221902926,490.8596382486027 L424.01883962894743,493.4892011789298 M424.01883962894743,493.4892011789298 L426.38815306903086,496.5358663782928 M426.38815306903086,496.5358663782928 L427.43021645755147,499.82274066300147 M427.43021645755147,499.82274066300147 L427.0841109114617,503.1588795916706 M427.0841109114617,503.1588795916706 L425.3695606975851,506.3503805690548 M425.3695606975851,506.3503805690548 L422.38590824815856,509.2116282029333 M422.38590824815856,509.2116282029333 L418.3063502970715,511.576147860231 M418.3063502970715,511.576147860231 L413.36799367452255,513.3062881479863 M413.36799367452255,513.3062881479863 L407.85800212366144,514.301314592849 M407.85800212366144,514.301314592849 L402.09693149879405,514.5032629529767 M402.09693149879405,514.5032629529767 L396.41996311443825,513.9003737678553 M396.41996311443825,513.9003737678553 L391.15738749345536,512.5277625245042 M391.15738749345536,512.5277625245042 L386.61530152119917,510.4653647292074 M420.47909833414735,412.7526205933335 L424.04168804663,415.37927015885776 M424.04168804663,415.37927015885776 L426.4136474811114,418.42256042252586 M426.4136474811114,418.42256042252586 L427.4568762444816,421.70579434036534 M427.4568762444816,421.70579434036534 L427.1103869239756,425.03823903960364 M427.1103869239756,425.03823903960364 L425.3939252263775,428.22620661080776 M425.3939252263775,428.22620661080776 L422.40694398106126,431.0842870207856 M422.40694398106126,431.0842870207856 L418.3228329525923,433.44618969293515 M418.3228329525923,433.44618969293515 L413.37896359882404,435.17441533367946 M413.37896359882404,435.17441533367946 L407.8628204266596,436.1683407258007 M407.8628204266596,436.1683407258007 L402.09531752965916,436.37006562636805 M402.09531752965916,436.37006562636805 L396.41201088298664,435.76784355683697 M396.41201088298664,435.76784355683697 L391.14356017825355,434.39675123636414 M391.14356017825355,434.39675123636414 L386.5964043102147,432.3366359019069 M386.61530152119917,510.4653647292074 L383.057764552964,507.8332624353163 M383.057764552964,507.8332624353163 L380.6914450050851,504.7846396105638 M380.6914450050851,504.7846396105638 L379.6536030628681,501.4968379061247 M379.6536030628681,501.4968379061247 L380.0041840709378,498.1610104840528 M380.0041840709378,498.1610104840528 L381.7224499249074,494.9709952015384 M381.7224499249074,494.9709952015384 L384.7082005244813,492.1120633527593 M384.7082005244813,492.1120633527593 L388.7877584759086,489.7501590590025 M388.7877584759086,489.7501590590025 L393.72401694869654,488.0223345533993 M393.72401694869654,488.0223345533993 L399.230292859223,487.02879380822407 M399.230292859223,487.02879380822407 L404.9868880214502,486.82716443281174 M404.9868880214502,486.82716443281174 L410.65963495899257,487.4291262009764 M410.65963495899257,487.4291262009764 L415.919216687853,488.7997798200257 M415.919216687853,488.7997798200257 L420.4602221902926,490.8596382486027 M386.5964043102147,432.3366359019069 L383.0348974812627,429.70744695390994 M383.0348974812627,429.70744695390994 L380.66593862551076,426.66219905027543 M380.66593862551076,426.66219905027543 L379.626940736574,423.3780377058 M379.626940736574,423.3780377058 L379.97791552171776,420.0459045196472 M379.97791552171776,420.0459045196472 L381.69810115787686,416.8594226543757 M381.69810115787686,416.8594226543757 L384.68718523932574,414.00365804674107 M384.68718523932574,414.00365804674107 L388.7712962681365,411.64437075760736 M388.7712962681365,411.64437075760736 L393.7130627861604,409.91846091625945 M393.7130627861604,409.91846091625945 L399.2254820195209,408.9260212348893 M399.2254820195209,408.9260212348893 L404.9884994512202,408.7246153172438 M404.9884994512202,408.7246153172438 L410.6675752229474,409.3259099629118 M410.6675752229474,409.3259099629118 L415.93302534903336,410.6950446445051 M415.93302534903336,410.6950446445051 L420.47909833414735,412.7526205933335" stroke="black"  stroke-width="4"  fill="red"/>
<path d="M622.9840069042064,295.70587021698935 L625.9660637498184,297.78933060916313 M625.9660637498184,297.78933060916313 L628.1874770086445,300.166639228991 M628.1874770086445,300.166639228991 L629.5627861502337,302.74652606191665 M629.5627861502337,302.74652606191665 L630.0389486971974,305.42992935907307 M630.0389486971974,305.42992935907307 L673.3992914336275,383.4175341173226 M673.3992914336275,383.4175341173226 L639.5360822292289,363.9531097204135 M622.9840069042064,295.70587021698935 L639.5360822292289,363.9531097204135 M630.0389486971974,305.42992935907307 L629.4600240290001,308.4911311091729 M629.4600240290001,308.4911311091729 L627.7124671221602,311.3993322533561 M627.7124671221602,311.3993322533561 L624.8836279603318,314.008581446923 M624.8836279603318,314.008581446923 L621.1152563764538,316.1878884827421 M621.1152563764538,316.1878884827421 L616.5963038566085,317.8278009716728 M616.5963038566085,317.8278009716728 L611.553487156345,318.8459059769616 M611.553487156345,318.8459059769616 L606.2399346173488,319.1910617925285 M606.2399346173488,319.1910617925285 L606.160218963354,422.4113364964473 M606.160218963354,422.4113364964473 L673.3992914336275,383.4175341173226 M606.2399346173488,319.1910617925285 L601.5780935483449,318.92654446032964 M601.5780935483449,318.92654446032964 L597.0925494624673,318.14317938429076 M597.0925494624673,318.14317938429076 L592.9558460731976,316.8711366590008 M592.9558460731976,316.8711366590008 L589.3270714742732,315.15939826980326 M589.3270714742732,315.15939826980326 L572.2967388607128,402.9035976742059 M572.2967388607128,402.9035976742059 L606.160218963354,422.4113364964473 M589.3270714742732,315.15939826980326 L586.3457174740474,313.07386764807507 M586.3457174740474,313.07386764807507 L584.1263233209879,310.6948076827354 M584.1263233209879,310.6948076827354 L582.7540604237809,308.1137444506955 M582.7540604237809,308.1137444506955 L582.2814892295107,305.42992935907307 M582.2814892295107,305.42992935907307 L538.4708848470746,383.4175341173226 M538.4708848470746,383.4175341173226 L572.2967388607128,402.9035976742059 M582.2814892295107,305.42992935907307 L582.8644850905459,302.3692596339599 M582.8644850905459,302.3692596339599 L584.6153246961705,299.46256329833113 M584.6153246961705,299.46256329833113 L587.445983302043,296.85547954154276 M587.445983302043,296.85547954154276 L591.2143688328481,294.6785800777688 M591.2143688328481,294.6785800777688 L595.7315270400163,293.04084045500815 M595.7315270400163,293.04084045500815 L600.7710784324768,292.02423283121306 M600.7710784324768,292.02423283121306 L606.0805659849102,291.6796164637417 M606.0805659849102,291.6796164637417 L605.7104570528038,344.5102884582402 M605.7104570528038,344.5102884582402 L538.4708848470746,383.4175341173226 M606.0805659849102,291.6796164637417 L610.7388109298215,291.9437220032682 M610.7388109298215,291.9437220032682 L615.221295184756,292.7259180980073 M615.221295184756,292.7259180980073 L619.3559591350718,293.99620206005403 M619.3559591350718,293.99620206005403 L622.9840069042064,295.70587021698935 M639.5360822292289,363.9531097204135 L605.7104570528038,344.5102884582402" stroke="black"  stroke-width="4"  fill="red"/>
<path d="M322.29655993231154,508.50380829692347 L322.2058634394245,430.37725057925576 M254.42535108851038,547.7765417340888 L254.25870253333377,469.606562219058 M322.29655993231154,508.50380829692347 L254.42535108851038,547.7765417340888 M322.2058634394245,430.37725057925576 L254.25870253333377,469.606562219058 M244.46619845753767,576.2204456905959 L244.28827613375356,498.01907829671075 M254.42535108851038,547.7765417340888 L244.46619845753767,576.2204456905959 M254.25870253333377,469.606562219058 L244.28827613375356,498.01907829671075 M250.8573576470708,589.1073902546503 L250.6865211484823,510.8918189858067 M244.46619845753767,576.2204456905959 L243.88027083720812,578.9954515070975 M243.88027083720812,578.9954515070975 L244.26050911010483,581.7814470452079 M244.26050911010483,581.7814470452079 L245.5917597015673,584.466201648027 M245.5917597015673,584.466201648027 L247.82059358065646,586.9414646736521 M247.82059358065646,586.9414646736521 L250.8573576470708,589.1073902546503 M244.28827613375356,498.01907829671075 L243.7016790952352,500.7910246372177 M243.7016790952352,500.7910246372177 L244.0823285906219,503.57394907410674 M244.0823285906219,503.57394907410674 L245.41505491243356,506.2557446427047 M245.41505491243356,506.2557446427047 L247.64637001846233,508.72827993258045 M247.64637001846233,508.72827993258045 L250.6865211484823,510.8918189858067 M273.042240562679,592.8531479970848 L272.89621078238633,514.6334501623296 M250.8573576470708,589.1073902546503 L254.57972244246378,590.8765982816246 M254.57972244246378,590.8765982816246 L258.83769261251337,592.1776650353478 M258.83769261251337,592.1776650353478 L263.45957027561667,592.9580729959714 M263.45957027561667,592.9580729959714 L268.25892287499727,593.1863148424626 M268.25892287499727,593.1863148424626 L273.042240562679,592.8531479970848 M250.6865211484823,510.8918189858067 L254.4130424555447,512.6590778294074 M254.4130424555447,512.6590778294074 L258.67577104657346,513.9587112900201 M258.67577104657346,513.9587112900201 L263.3028170193072,514.7382595819439 M263.3028170193072,514.7382595819439 L268.1075391298941,514.9662500129107 M268.1075391298941,514.9662500129107 L272.89621078238633,514.6334501623296 M322.11496422751,587.137055085061 L322.0238616161506,508.9236548202383 M273.042240562679,592.8531479970848 L322.11496422751,587.137055085061 M272.89621078238633,514.6334501623296 L322.0238616161506,508.9236548202383 M389.9863757903386,547.7765417340888 L389.9712259216862,469.6065622190581 M322.11496422751,587.137055085061 L389.9863757903386,547.7765417340888 M322.0238616161506,508.9236548202383 L389.9712259216862,469.6065622190581 M389.9863757903386,547.7765417340888 L322.29655993231154,508.50380829692347 M389.9712259216862,469.6065622190581 L322.2058634394245,430.37725057925576" stroke="black"  stroke-width="4"  fill="red"/>
<path d="M81.60344440348581,364.9071008614626 L81.46037238757555,333.74110708040297 M150.76236600428138,354.2290009459377 L150.6500629611287,323.06776577702 M81.60344440348581,364.9071008614626 L150.76236600428138,354.2290009459377 M81.46037238757555,333.74110708040297 L150.6500629611287,323.06776577702 M31.342012718673175,335.74937176679305 L31.176741876149947,304.59637873220925 M31.342012718673175,335.74937176679305 L81.60344440348581,364.9071008614626 M31.176741876149947,304.59637873220925 L81.46037238757555,333.74110708040297 M169.53331873608553,314.4351837621389 L169.42947326250015,283.2917078622212 M150.76236600428138,354.2290009459377 L169.53331873608553,314.4351837621389 M150.6500629611287,323.06776577702 L169.42947326250015,283.2917078622212 M169.53331873608553,314.4351837621389 L119.27116031798289,285.361364783095 M119.27116031798289,285.361364783095 L50.23867049024551,295.9975133222274 M50.23867049024551,295.9975133222274 L31.342012718673175,335.74937176679305 M73.37142452247974,340.6243134173819 L80.57468137305511,343.8924778130498 M80.57468137305511,343.8924778130498 L88.93535333476558,346.06770596314396 M88.93535333476558,346.06770596314396 L97.96688190353274,347.02316247805766 M97.96688190353274,347.02316247805766 L107.14347924695386,346.7031118400171 M107.14347924695386,346.7031118400171 L115.93086526224255,345.1262305915522 M115.93086526224255,345.1262305915522 L123.81752940047284,342.38447939467187 M123.81752940047284,342.38447939467187 L130.34467440051668,338.6377027979144 M130.34467440051668,338.6377027979144 L135.13297797278494,334.104205132732 M135.13297797278494,334.104205132732 L137.90458685551357,329.04796360326054 M137.90458685551357,329.04796360326054 L138.49925216079544,323.7631439491325 M138.49925216079544,323.7631439491325 L136.88336402291895,318.5569497849307 M136.88336402291895,318.5569497849307 L133.15175443869424,313.7317461313865 M133.15175443869424,313.7317461313865 L127.52195475216092,309.56753539930173 M127.52195475216092,309.56753539930173 L120.32137444151681,306.30577861193393 M120.32137444151681,306.30577861193393 L111.96825422013887,304.1354836128147 M111.96825422013887,304.1354836128147 L102.94739190969477,303.1823585257205 M102.94739190969477,303.1823585257205 L93.78217368420337,303.50162154119056 M93.78217368420337,303.50162154119056 L85.0042311127205,305.07474498559094 M85.0042311127205,305.07474498559094 L77.12292886499381,307.8106597970325 M77.12292886499381,307.8106597970325 L70.59584098196234,311.5508408368571 M70.59584098196234,311.5508408368571 L65.80227666993045,316.0784947191977 M65.80227666993045,316.0784947191977 L63.02128923974965,321.1310006462238 M63.02128923974965,321.1310006462238 L62.415258590888016,326.4150178890179 M62.415258590888016,326.4150178890179 L64.02043996405575,331.623558277475 M64.02043996405575,331.623558277475 L67.74441229862737,336.4537024851305 M67.74441229862737,336.4537024851305 L73.37142452247974,340.6243134173819 M50.23867049024551,295.9975133222274 L50.08196868494741,264.86227943700857 M50.08196868494741,264.86227943700857 L31.176741876149947,304.59637873220925 M119.27116031798289,285.361364783095 L119.14511504953674,254.23088939373378 M169.42947326250015,283.2917078622212 L119.14511504953674,254.23088939373378 M119.14511504953674,254.23088939373378 L50.08196868494741,264.86227943700857 M73.37142452247974,340.6243134173819 L74.10261941504552,495.98617788060017 M74.10261941504552,495.98617788060017 L81.28999058957004,499.2615736793862 M81.28999058957004,499.2615736793862 L89.63218852104114,501.4416141634597 M89.63218852104114,501.4416141634597 L98.64373124276051,502.39918427891234 M98.64373124276051,502.39918427891234 L107.79999645439136,502.0784256579616 M107.79999645439136,502.0784256579616 L116.56788998183015,500.49805600631964 M116.56788998183015,500.49805600631964 L124.43703771657226,497.7502387108109 M124.43703771657226,497.7502387108109 L130.94966241290217,493.99517086511116 M130.94966241290217,493.99517086511116 L135.72728564041648,489.4516386348419 M135.72728564041648,489.4516386348419 L138.49267290813737,484.38420241130007 M138.49267290813737,484.38420241130007 L139.08593330517226,479.08767851882726 M139.08593330517226,479.08767851882726 L137.47353436804917,473.86995078505277 M137.47353436804917,473.86995078505277 L133.75010124682456,469.03405452288985 M133.75010124682456,469.03405452288985 L128.13268718607702,464.86061356366577 M128.13268718607702,464.86061356366577 L120.94798082299008,461.5916253579313 M120.94798082299008,461.5916253579313 L112.6133013439885,459.4165179985527 M112.6133013439885,459.4165179985527 L103.61237772715384,458.4612792859529 M103.61237772715384,458.4612792859529 L94.4674413244494,458.7812503036452 M94.4674413244494,458.7812503036452 L85.70894939310949,460.3578621403453 M85.70894939310949,460.3578621403453 L77.84513971118758,463.0998430800015 M77.84513971118758,463.0998430800015 L71.33257175340884,466.8483153929159 M71.33257175340884,466.8483153929159 L66.54971095357945,471.3860038535202 M66.54971095357945,471.3860038535202 L63.77498655609645,476.4497045129289 M63.77498655609645,476.4497045129289 L63.17041103320503,481.74542598057724 M63.17041103320503,481.74542598057724 L64.77215062745188,486.9654999464479 M64.77215062745188,486.9654999464479 L68.48798035348551,491.8063367528527 M68.48798035348551,491.8063367528527 L74.10261941504552,495.98617788060017" stroke="black"  stroke-width="4"  fill="red"/>
<path d="M302.84963752428786,209.01241800372478 L302.667286254352,272.17852918272047 M302.667286254352,272.17852918272047 L302.632638716465,248.05939074760443 M302.632638716465,248.05939074760443 L302.65499468979624,263.6220208365585 M302.65499468979624,263.6220208365585 L302.69841520472175,293.84827858187055 M302.69841520472175,293.84827858187055 L302.73681148120596,293.8339843869528 M302.73681148120596,293.8339843869528 L412.6020311979221,230.67023286256338 M412.6020311979221,230.67023286256338 L303.06224013949753,167.7123672832348 M303.06224013949753,167.7123672832348 L193.15929273993137,230.67023654145035 M193.15929273993137,230.67023654145035 L302.69842637246677,293.85605276743655 M302.69842637246677,293.85605276743655 L412.6020311979221,230.67023286256338 M412.6020311979221,230.67023286256338 L412.60203320061675,230.6547004688043 M412.60203320061675,230.6547004688043 L344.93420950618525,205.56880769928344 M344.93420950618525,205.56880769928344 L303.08194623992284,181.50475388774254 M303.08194623992284,181.50475388774254 L193.20062746009523,244.47517252448608 M193.20062746009523,244.47517252448608 L302.7182754175838,307.6735386893549 M302.7182754175838,307.6735386893549 L412.6002512358757,244.47516884486697 M412.6002512358757,244.47516884486697 L303.08194623992284,181.50475388774254 M303.08194623992284,181.50475388774254 L303.0819240792779,181.48924355458655 M303.0819240792779,181.48924355458655 L235.31835781935808,234.15212940523685 M235.31835781935808,234.15212940523685 L193.24194594109557,258.27468496500796 M193.24194594109557,258.27468496500796 L302.73811665049874,321.4855863147385 M302.73811665049874,321.4855863147385 L412.59847197312257,258.2746812846578 M412.59847197312257,258.2746812846578 L303.10164461237594,195.29173165033225 M303.10164461237594,195.29173165033225 L193.24194594109557,258.27468496500796 M193.24194594109557,258.27468496500796 L193.24189947609852,258.25916662333407 M193.24189947609852,258.25916662333407 L260.82892760023884,311.07750607227433 M260.82892760023884,311.07750607227433 L302.7579500758226,335.29219885356883 M302.7579500758226,335.29219885356883 L412.59669340925075,272.06877337742696 M412.59669340925075,272.06877337742696 L303.12133526140167,209.0733037520888 M303.12133526140167,209.0733037520888 L193.28324819250045,272.06877705850746 M193.28324819250045,272.06877705850746 L302.7579500758226,335.29219885356883 M302.7579500758226,335.29219885356883 L302.7579277720076,335.27667253234137 M302.7579277720076,335.27667253234137 L370.247790225171,310.16458638750504 M370.247790225171,310.16458638750504 L412.5949255404154,285.7799174702735 M412.5949255404154,285.7799174702735 L303.140907518488,222.77201281325878 M303.140907518488,222.77201281325878 L193.32430208111896,285.7799211520793 M193.32430208111896,285.7799211520793 L302.77766422285936,349.0157783777696 M302.77766422285936,349.0157783777696 L412.5949255404154,285.7799174702735 M412.5949255404154,285.7799174702735 L412.59492754068475,285.76440388608376 M412.59492754068475,285.76440388608376 L374.5115393698399,271.60548509799503 M374.5115393698399,271.60548509799503 L303.15197441825643,230.51778477345053 M303.15197441825643,230.51778477345053 L193.34751550091468,293.5327200813246 M193.34751550091468,293.5327200813246 L302.7888113403042,356.7756044780249 M302.7888113403042,356.7756044780249 L412.593925920579,293.53271639910895 M412.593925920579,293.53271639910895 L303.15197441825643,230.51778477345053 M303.15197441825643,230.51778477345053 L302.9969264593386,121.99903446391158" stroke="black"  stroke-width="4"  fill="red"/>
<path d="M269.06233559212745,266.9543188897702 L268.91324452485975,189.0969797582775 M201.59863570290767,305.68930978746334 L201.37450269231175,227.78854963398763 M269.06233559212745,266.9543188897702 L201.59863570290767,305.68930978746334 M268.91324452485975,189.0969797582775 L201.37450269231175,227.78854963398763 M134.58220257090807,266.9543151998041 L134.2840204470994,189.09697607245235 M201.59863570290767,305.68930978746334 L134.58220257090807,266.9543151998041 M201.37450269231175,227.78854963398763 L134.2840204470994,189.09697607245235 M202.04540768894594,228.30502118462795 L201.82226586105867,150.49110181108477 M134.58220257090807,266.9543151998041 L202.04540768894594,228.30502118462795 M134.2840204470994,189.09697607245235 L201.82226586105867,150.49110181108477 M202.04540768894594,228.30502118462795 L269.06233559212745,266.9543188897702 M201.82226586105867,150.49110181108477 L268.91324452485975,189.0969797582775" stroke="black"  stroke-width="4"  fill="red"/>
<path d="M599.6025724543213,457.58000360154807 L599.8211212161023,379.5098952433026 M532.138830541764,496.73906146390163 L532.2823372399912,418.62553044022155 M599.6025724543213,457.58000360154807 L532.138830541764,496.73906146390163 M599.8211212161023,379.5098952433026 L532.2823372399912,418.62553044022155 M600.0401577555015,535.9855181832183 L600.259683707345,457.8285651124996 M532.138830541764,496.73906146390163 L600.0401577555015,535.9855181832183 M532.2823372399912,418.62553044022155 L600.259683707345,457.8285651124996 M667.5034118904405,496.73906146390163 L667.797978271012,418.62553044022155 M600.0401577555015,535.9855181832183 L667.5034118904405,496.73906146390163 M600.259683707345,457.8285651124996 L667.797978271012,418.62553044022155 M667.5034118904405,496.73906146390163 L599.6025724543213,457.58000360154807 M667.797978271012,418.62553044022155 L599.8211212161023,379.5098952433026" stroke="black"  stroke-width="4"  fill="red"/>
<path d="M498.35052660931507,516.3513466892974 L498.4563864221207,438.2161045442613 M430.66073773526404,555.6416126019874 L430.691051014355,477.46294884256235 M498.35052660931507,516.3513466892974 L430.66073773526404,555.6416126019874 M498.4563864221207,438.2161045442613 L430.691051014355,477.46294884256235 M498.562482898939,595.0197172491122 L498.66881683429983,516.7976329893377 M430.66073773526404,555.6416126019874 L498.562482898939,595.0197172491122 M430.691051014355,477.46294884256235 L498.66881683429983,516.7976329893377 M566.2520351089775,555.6416126019874 L566.433914783523,477.46294884256235 M498.562482898939,595.0197172491122 L566.2520351089775,555.6416126019874 M498.66881683429983,516.7976329893377 L566.433914783523,477.46294884256235 M566.2520351089775,555.6416126019874 L498.35052660931507,516.3513466892974 M566.433914783523,477.46294884256235 L498.4563864221207,438.2161045442613" stroke="black"  stroke-width="4"  fill="red"/>
<path d="M356.027164593932,598.9623701861681 L355.9739857314065,520.7359439504686 M288.0189964040995,638.4374380931653 L287.88955832919027,560.1675929685821 M356.027164593932,598.9623701861681 L288.0189964040995,638.4374380931653 M355.9739857314065,520.7359439504686 L287.88955832919027,560.1675929685821 M355.9206877005616,678.0009655360884 L355.8672701003821,599.6877033417559 M288.0189964040995,638.4374380931653 L355.9206877005616,678.0009655360884 M287.88955832919027,560.1675929685821 L355.8672701003821,599.6877033417559 M423.92897505871355,638.4374380931653 L423.9518170719328,560.1675929685821 M355.9206877005616,678.0009655360884 L423.92897505871355,638.4374380931653 M355.8672701003821,599.6877033417559 L423.9518170719328,560.1675929685821 M423.92897505871355,638.4374380931653 L356.027164593932,598.9623701861681 M423.9518170719328,560.1675929685821 L355.9739857314065,520.7359439504686" stroke="black"  stroke-width="4"  fill="red"/>
<path d="M417.1091820844402,575.3196666838318 L417.12435567109037,497.11929251416416 M383.1810486951462,595.0197172491122 L383.1582628518546,516.7976329893377 M417.1091820844402,575.3196666838318 L383.1810486951462,595.0197172491122 M417.12435567109037,497.11929251416416 L383.1582628518546,516.7976329893377 M430.7123106641231,622.6368124111833 L430.74273941583505,544.3843346428191 M383.1810486951462,595.0197172491122 L430.7123106641231,622.6368124111833 M383.1582628518546,516.7976329893377 L430.74273941583505,544.3843346428191 M464.6404262340835,602.9059047540238 L464.70881435583584,524.6751365572143 M430.7123106641231,622.6368124111833 L464.6404262340835,602.9059047540238 M430.74273941583505,544.3843346428191 L464.70881435583584,524.6751365572143 M464.6404262340835,602.9059047540238 L417.1091820844402,575.3196666838318 M464.70881435583584,524.6751365572143 L417.12435567109037,497.11929251416416" stroke="black"  stroke-width="4"  fill="red"/>
<path d="M700.5169614101158,399.0046520981287 L700.8474471469835,320.9996781834999 M633.278136036424,438.03315805941736 L633.5340803966913,359.98476116355704 M700.5169614101158,399.0046520981287 L633.278136036424,438.03315805941736 M700.8474471469835,320.9996781834999 L633.5340803966913,359.98476116355704 M701.1786692602707,477.14862593238445 L701.5106302138729,399.05680618461366 M633.278136036424,438.03315805941736 L701.1786692602707,477.14862593238445 M633.5340803966913,359.98476116355704 L701.5106302138729,399.05680618461366 M768.4167582575433,438.03315805941736 L768.8232581238501,359.9847611635571 M701.1786692602707,477.14862593238445 L768.4167582575433,438.03315805941736 M701.5106302138729,399.05680618461366 L768.8232581238501,359.9847611635571 M768.4167582575433,438.03315805941736 L700.5169614101158,399.0046520981287 M768.8232581238501,359.9847611635571 L700.8474471469835,320.9996781834999" stroke="black"  stroke-width="4"  fill="red"/></svg>