<svg viewBox="0 0 800 800" xmlns="http://www.w3.org/2000/svg"><path d="M507.3083953982689,348.4455557476677 L507.42365616485415,268.52400837507855 M576.2347599976554,308.6066351245908 L576.4264350938716,228.72959927532145 M507.3083953982689,348.4455557476677 L576.2347599976554,308.6066351245908 M507.42365616485415,268.52400837507855 L576.4264350938716,228.72959927532145 M507.0786401416631,268.85600019818537 L507.1933903405391,189.0234750543213 M576.2347599976554,308.6066351245908 L507.0786401416631,268.85600019818537 M576.4264350938716,228.72959927532145 L507.1933903405391,189.0234750543213 M438.152020683423,308.6066351245907 L438.1903557026663,228.72959927532145 M507.0786401416631,268.85600019818537 L438.152020683423,308.6066351245907 M507.1933903405391,189.0234750543213 L438.1903557026663,228.72959927532145 M438.152020683423,308.6066351245907 L507.3083953982689,348.4455557476677 M438.1903557026663,228.72959927532145 L507.42365616485415,268.52400837507855" stroke="black"  stroke-width="4"  fill="red"/>
<path d="M403.631335854865,328.5150413516056 L403.631335854865,248.61574982267229 M334.47489724832036,368.39821515972545 L334.39797128769015,288.45441182020164 M403.631335854865,328.5150413516056 L334.47489724832036,368.39821515972545 M403.631335854865,248.61574982267229 L334.39797128769015,288.45441182020164 M403.631335854865,408.3701168294873 L403.631335854865,328.3818013500195 M334.47489724832036,368.39821515972545 L403.631335854865,408.3701168294873 M334.39797128769015,288.45441182020164 L403.631335854865,328.3818013500195 M472.78777446140964,368.39821515972545 L472.8647004220398,288.45441182020164 M403.631335854865,408.3701168294873 L472.78777446140964,368.39821515972545 M403.631335854865,328.3818013500195 L472.8647004220398,288.45441182020164 M472.78777446140964,368.39821515972545 L403.631335854865,328.5150413516056 M472.8647004220398,288.45441182020164 L403.631335854865,248.61574982267229" stroke="black"  stroke-width="4"  fill="red"/>
<path d="M299.83901554487585,388.3730565166548 L299.72349821564933,308.40699712781236 M230.45160645617221,428.38943319163855 L230.25864854040765,348.37886162149925 M299.83901554487585,388.3730565166548 L230.45160645617221,428.38943319163855 M299.72349821564933,308.40699712781236 L230.25864854040765,348.37886162149925 M299.60772346619063,468.4949828508562 L299.4916904350822,388.4398992652 M230.45160645617221,428.38943319163855 L299.60772346619063,468.4949828508562 M230.25864854040765,348.37886162149925 L299.4916904350822,388.4398992652 M368.99538997512644,428.38943319163855 L368.9567983919735,348.37886162149925 M299.60772346619063,468.4949828508562 L368.99538997512644,428.38943319163855 M299.4916904350822,388.4398992652 L368.9567983919735,348.37886162149925 M368.99538997512644,428.38943319163855 L299.83901554487585,388.3730565166548 M368.9567983919735,348.37886162149925 L299.72349821564933,308.40699712781236" stroke="black"  stroke-width="4"  fill="red"/>
<path d="M381.69197009612236,286.3292113705321 L381.6676217042791,206.4771085925484 M332.6942587127519,258.0950242335595 L332.6155945399549,178.27456548073854 M381.69197009612236,286.3292113705321 L332.6942587127519,258.0950242335595 M381.6676217042791,206.4771085925484 L332.6155945399549,178.27456548073854 M339.19816389150367,254.35578074477604 L339.12671955311424,174.5395165199166 M332.6942587127519,258.0950242335595 L339.19816389150367,254.35578074477604 M332.6155945399549,178.27456548073854 L339.12671955311424,174.5395165199166 M361.83655385229383,267.3980831664603 L361.7901943628429,187.5671923803216 M339.19816389150367,254.35578074477604 L361.83655385229383,267.3980831664603 M339.12671955311424,174.5395165199166 L361.7901943628429,187.5671923803216 M386.5592291058528,253.17410964944708 L386.54029995719276,173.35917115391376 M361.83655385229383,267.3980831664603 L386.5592291058528,253.17410964944708 M361.7901943628429,187.5671923803216 L386.54029995719276,173.35917115391376 M363.9208273696336,240.14215740690855 L363.87681333282194,160.34184532403054 M386.5592291058528,253.17410964944708 L363.9208273696336,240.14215740690855 M386.54029995719276,173.35917115391376 L363.87681333282194,160.34184532403054 M370.38455412555544,236.42601341017286 L370.34770813459437,156.62987406620613 M363.9208273696336,240.14215740690855 L370.38455412555544,236.42601341017286 M363.87681333282194,160.34184532403054 L370.34770813459437,156.62987406620613 M419.3822918167853,264.6260415910769 L419.3997616943996,184.79825868833555 M370.38455412555544,236.42601341017286 L419.3822918167853,264.6260415910769 M370.34770813459437,156.62987406620613 L419.3997616943996,184.79825868833555 M412.91856310207464,268.3480422347275 L412.9288649273174,188.51608650822496 M419.3822918167853,264.6260415910769 L412.91856310207464,268.3480422347275 M419.3997616943996,184.79825868833555 L412.9288649273174,188.51608650822496 M391.8427722842441,256.21561775476636 L391.82970029233854,176.39726713395785 M412.91856310207464,268.3480422347275 L391.8427722842441,256.21561775476636 M412.9288649273174,188.51608650822496 L391.82970029233854,176.39726713395785 M367.12009522392566,270.4420074272251 L367.07959288521096,190.60770448292016 M391.8427722842441,256.21561775476636 L367.12009522392566,270.4420074272251 M391.82970029233854,176.39726713395785 L367.07959288521096,190.60770448292016 M388.1958823800682,282.5840718735727 L388.1787538463026,202.73616369913975 M367.12009522392566,270.4420074272251 L388.1958823800682,282.5840718735727 M367.07959288521096,190.60770448292016 L388.1787538463026,202.73616369913975 M388.1958823800682,282.5840718735727 L381.69197009612236,286.3292113705321 M388.1787538463026,202.73616369913975 L381.6676217042791,206.4771085925484" stroke="black"  stroke-width="4"  fill="red"/>
<path d="M183.33832748896134,395.6899114586643 L183.09309889872222,315.7157057747777 M230.64413533821633,388.3730565166548 L230.45160645617221,308.40699712781225 M183.33832748896134,395.6899114586643 L230.64413533821633,388.3730565166548 M183.09309889872222,315.7157057747777 L230.45160645617221,308.40699712781225 M243.42932091314992,361.0924642493629 L243.25115694354278,281.1568071697042 M230.64413533821633,388.3730565166548 L243.42932091314992,361.0924642493629 M230.45160645617221,308.40699712781225 L243.25115694354278,281.1568071697042 M208.9662568510857,341.14791475494485 L208.749886111324,261.2345136018329 M243.42932091314992,361.0924642493629 L208.9662568510857,341.14791475494485 M243.25115694354278,281.1568071697042 L208.749886111324,261.2345136018329 M161.71819692025576,348.4455557476677 L161.44925513155687,268.52400837507855 M208.9662568510857,341.14791475494485 L161.71819692025576,348.4455557476677 M208.749886111324,261.2345136018329 L161.44925513155687,268.52400837507855 M148.87548525669854,375.70694169489894 L148.59205063739552,295.754992080226 M161.71819692025576,348.4455557476677 L148.87548525669854,375.70694169489894 M161.44925513155687,268.52400837507855 L148.59205063739552,295.754992080226 M148.87548525669854,375.70694169489894 L183.33832748896134,395.6899114586643 M148.59205063739552,295.754992080226 L183.09309889872222,315.7157057747777" stroke="black"  stroke-width="4"  fill="red"/>
<path d="M334.6282374669601,288.7203003013752 L334.5516524521012,208.8655199272462 M265.4719690493374,328.5150413516056 L265.3184586417757,248.61574982267229 M334.6282374669601,288.7203003013752 L341.87325719935916,294.0551062863591 M341.87325719935916,294.0551062863591 L346.6916787911357,300.237114639378 M346.6916787911357,300.237114639378 L348.802432856632,306.90771957359345 M348.802432856632,306.90771957359345 L348.08138008770817,313.6795724876494 M348.08138008770817,313.6795724876494 L344.56887319472065,320.15901038566074 M344.56887319472065,320.15901038566074 L338.4677618993272,325.96896363272737 M338.4677618993272,325.96896363272737 L330.13188434999563,330.7709747421766 M330.13188434999563,330.7709747421766 L320.0456932822326,334.2850637199897 M320.0456932822326,334.2850637199897 L308.79609938035884,336.306208157664 M308.79609938035884,336.306208157664 L297.03817376249657,336.71642927868106 M297.03817376249657,336.71642927868106 L285.45680235352074,335.4917755636098 M285.45680235352074,335.4917755636098 L274.726516151577,332.70374342834714 M274.726516151577,332.70374342834714 L265.4719690493374,328.5150413516056 M334.5516524521012,208.8655199272462 L341.8047030620431,214.19435314871046 M341.8047030620431,214.19435314871046 L346.62846240195194,220.3694424253854 M346.62846240195194,220.3694424253854 L348.74154856612165,227.03258408323416 M348.74154856612165,227.03258408323416 L348.0196834529548,233.79686325624817 M348.0196834529548,233.79686325624817 L344.503263530137,240.26905710933931 M344.503263530137,240.26905710933931 L338.3953630696971,246.07251700648334 M338.3953630696971,246.07251700648334 L330.05021315448585,250.86916284314782 M330.05021315448585,250.86916284314782 L319.9528054003219,254.37932644334984 M319.9528054003219,254.37932644334984 L308.69070399831827,256.3982135279554 M308.69070399831827,256.3982135279554 L296.9197098247693,256.80797651665995 M296.9197098247693,256.80797651665995 L285.32547176671966,255.58469051782959 M285.32547176671966,255.58469051782959 L274.5832718418061,252.79977245507087 M274.5832718418061,252.79977245507087 L265.3184586417757,248.61574982267229 M265.4719690493374,328.5150413516056 L258.23135853387066,323.16997447625 M258.23135853387066,323.16997447625 L253.42512005432482,316.98006260210144 M253.42512005432482,316.98006260210144 L251.3315203403513,310.3057153960375 M251.3315203403513,310.3057153960375 L252.07075722122775,303.535132044723 M252.07075722122775,303.535132044723 L255.59833042772254,297.0616952180243 M255.59833042772254,297.0616952180243 L261.7079321735087,291.2610959898314 M261.7079321735087,291.2610959898314 L270.04377923247114,286.46964895038195 M270.04377923247114,286.46964895038195 L280.1214258506148,282.96491398894096 M280.1214258506148,282.96491398894096 L291.35591878787005,280.9497706321639 M291.35591878787005,280.9497706321639 L303.0956529314285,280.5408266606345 M303.0956529314285,280.5408266606345 L314.6598916086248,281.7617305086451 M314.6598916086248,281.7617305086451 L325.37804035257585,284.54185152950515 M325.37804035257585,284.54185152950515 L334.6282374669601,288.7203003013752 M265.3184586417757,248.61574982267229 L258.0698270873112,243.27665581012434 M258.0698270873112,243.27665581012434 L253.2582779513023,237.09366308134918 M253.2582779513023,237.09366308134918 L251.1623842641429,230.42677918212195 M251.1623842641429,230.42677918212195 L251.9024739016171,223.6637695642939 M251.9024739016171,223.6637695642939 L255.43399359935395,217.19757672690437 M255.43399359935395,217.19757672690437 L261.550403347808,211.403470761956 M261.550403347808,211.403470761956 L269.8955226709653,206.61738889740695 M269.8955226709653,206.61738889740695 L279.984366957798,203.1165792269107 M279.984366957798,203.1165792269107 L291.23133381819895,201.1036931676042 M291.23133381819895,201.1036931676042 L302.98409608052276,200.6952073123456 M302.98409608052276,200.6952073123456 L314.561163353402,201.9147434830657 M314.561163353402,201.9147434830657 L325.2911988809205,204.69175050892724 M325.2911988809205,204.69175050892724 L334.5516524521012,208.8655199272462" stroke="black"  stroke-width="4"  fill="red"/>
<path d="M507.42365616485415,388.3730565166548 L507.5391734940806,308.40699712781236 M438.2672817346035,428.38943319163855 L438.30587331775644,348.37886162149925 M507.42365616485415,388.3730565166548 L438.2672817346035,428.38943319163855 M507.5391734940806,308.40699712781236 L438.30587331775644,348.37886162149925 M507.6549482435394,468.4949828508562 L507.7709812746478,388.4398992652 M438.2672817346035,428.38943319163855 L507.6549482435394,468.4949828508562 M438.30587331775644,348.37886162149925 L507.7709812746478,388.4398992652 M576.8110652535577,428.38943319163855 L577.0040231693223,348.37886162149925 M507.6549482435394,468.4949828508562 L576.8110652535577,428.38943319163855 M507.7709812746478,388.4398992652 L577.0040231693223,348.37886162149925 M576.8110652535577,428.38943319163855 L507.42365616485415,388.3730565166548 M577.0040231693223,348.37886162149925 L507.5391734940806,308.40699712781236 M524.8234257634133,418.3769906828353 L524.9584211295047,338.37754715545145 M490.24530015474,438.4074490054843 L490.3418328538761,358.38574940293637 M524.8234257634133,418.3769906828353 L528.472968450913,421.06352269651916 M528.472968450913,421.06352269651916 L530.9066407389114,424.17619149221645 M530.9066407389114,424.17619149221645 L531.9827513561169,427.5342713488794 M531.9827513561169,427.5342713488794 L531.6383895215682,430.9426844303254 M531.6383895215682,430.9426844303254 L529.8931814530606,434.2033206362979 M529.8931814530606,434.2033206362979 L526.8482265898033,437.12655426444223 M526.8482265898033,437.12655426444223 L522.6802984443294,439.5422934568592 M522.6802984443294,439.5422934568592 L517.6316214301886,441.309915810805 M517.6316214301886,441.309915810805 L511.99579279097685,442.3264937981293 M511.99579279097685,442.3264937981293 L506.10067063278353,442.5328182640704 M506.10067063278353,442.5328182640704 L500.2892465690457,441.9168681269193 M500.2892465690457,441.9168681269193 L494.89962768070313,440.51452276778974 M494.89962768070313,440.51452276778974 L490.24530015474,438.4074490054843 M524.9584211295047,338.37754715545145 L528.6120394209526,341.06109269144315 M528.6120394209526,341.06109269144315 L531.0484350458815,344.170301853528 M531.0484350458815,344.170301853528 L532.1257578884112,347.5246499817672 M532.1257578884112,347.5246499817672 L531.7810258935352,350.9292761141768 M531.7810258935352,350.9292761141768 L530.033885923482,354.1862902323567 M530.033885923482,354.1862902323567 L526.9855489663098,357.10627713634676 M526.9855489663098,357.10627713634676 L522.8129846734869,359.51933365813017 M522.8129846734869,359.51933365813017 L517.7586868921826,361.2849933017587 M517.7586868921826,361.2849933017587 L512.1165799354044,362.30044260149583 M512.1165799354044,362.30044260149583 L506.2148875050544,362.50653799703065 M506.2148875050544,362.50653799703065 L500.39698392492124,361.8912717223444 M500.39698392492124,361.8912717223444 L495.0013536645334,360.4904834133737 M495.0013536645334,360.4904834133737 L490.3418328538761,358.38574940293637 M490.24530015474,438.4074490054843 L486.5968538695739,435.71832694672156 M486.5968538695739,435.71832694672156 L484.16623456832997,432.6036614555854 M484.16623456832997,432.6036614555854 L483.0944341171285,429.24463567015255 M483.0944341171285,429.24463567015255 L483.44336927626546,425.8365403063952 M483.44336927626546,425.8365403063952 L485.1923778509566,422.57741944537486 M485.1923778509566,422.57741944537486 L488.2394831379187,419.65654782311657 M488.2394831379187,419.65654782311657 L492.407418984317,417.2434761891502 M492.407418984317,417.2434761891502 L497.45395921218994,415.4782158397227 M497.45395921218994,415.4782158397227 L503.0859960938253,414.4631531991322 M503.0859960938253,414.4631531991322 L508.97654678316206,414.2571540928142 M508.97654678316206,414.2571540928142 L514.7836552190574,414.8721583021427 M514.7836552190574,414.8721583021427 L520.1702095928055,416.2725069667623 M520.1702095928055,416.2725069667623 L524.8234257634133,418.3769906828353 M490.3418328538761,358.38574940293637 L486.689313401011,355.6996138170572 M486.689313401011,355.6996138170572 L484.2559775635038,352.5884079558268 M484.2559775635038,352.5884079558268 L483.18297449410653,349.23311389706146 M483.18297449410653,349.23311389706146 L483.53229001890645,345.8288054871827 M483.53229001890645,345.8288054871827 L485.28323897384126,342.57330671676795 M485.28323897384126,342.57330671676795 L488.3337311570334,339.6556818230489 M488.3337311570334,339.6556818230489 L492.5063031765511,337.245292864669 M492.5063031765511,337.245292864669 L497.55845941490827,335.48199522994463 M497.55845941490827,335.48199522994463 L503.1967661646877,334.4680612797551 M503.1967661646877,334.4680612797551 L509.09387692705485,334.26229124019557 M509.09387692705485,334.26229124019557 L514.9074552539391,334.87661158530256 M514.9074552539391,334.87661158530256 L520.300014160489,336.2754031960558 M520.300014160489,336.2754031960558 L524.9584211295047,338.37754715545145" stroke="black"  stroke-width="4"  fill="red"/>
<path d="M420.9734352546672,478.5353384844051 L420.9927848774285,398.46912695982246 M386.279567038057,498.6328443246285 L386.2601958197296,418.54437703680605 M420.9734352546672,478.5353384844051 L424.6213151140153,481.2308599383927 M424.6213151140153,481.2308599383927 L427.0500591213595,484.3539460274482 M427.0500591213595,484.3539460274482 L428.1182610600835,487.72326647565313 M428.1182610600835,487.72326647565313 L427.7634739910731,491.14308729530245 M427.7634739910731,491.14308729530245 L426.0059169339128,494.4146421441122 M426.0059169339128,494.4146421441122 L422.9474241722768,497.347659754507 M422.9474241722768,497.347659754507 L418.76553681254995,499.7714897344302 M418.76553681254995,499.7714897344302 L413.7033091434571,501.5450279183871 M413.7033091434571,501.5450279183871 L408.05510796700173,502.5650130643897 M408.05510796700173,502.5650130643897 L402.1495297858641,502.7720269871384 M402.1495297858641,502.7720269871384 L396.33016342001054,502.1540152582198 M396.33016342001054,502.1540152582198 L390.93558421979833,500.74697418239447 M390.93558421979833,500.74697418239447 L386.279567038057,498.6328443246285 M420.9927848774285,398.46912695982246 L424.6447366489566,401.16166197175204 M424.6447366489566,401.16166197175204 L427.07619302138045,404.28128847006474 M427.07619302138045,404.28128847006474 L428.1455895665817,407.6468772384215 M428.1455895665817,407.6468772384215 L427.7904090967668,411.0629111646021 M427.7904090967668,411.0629111646021 L426.030892609269,414.3308439771964 M426.030892609269,414.3308439771964 L422.96898755404095,417.2606149187722 M422.96898755404095,417.2606149187722 L418.78243291002025,419.68176227051777 M418.78243291002025,419.68176227051777 L413.71455423136206,421.45333778150143 M413.71455423136206,421.45333778150143 L408.0600471296867,422.4721942565555 M408.0600471296867,422.4721942565555 L402.14787533280685,422.6789791146061 M402.14787533280685,422.6789791146061 L396.32201171911845,422.0616512348417 M396.32201171911845,422.0616512348417 L390.9214100677567,420.6561671817285 M390.9214100677567,420.6561671817285 L386.2601958197296,418.54437703680605 M386.279567038057,498.6328443246285 L382.6327947510598,495.934719811065 M382.6327947510598,495.934719811065 L380.2071197330808,492.8096269926114 M380.2071197330808,492.8096269926114 L379.1432451291192,489.43935586178503 M379.1432451291192,489.43935586178503 L379.502619920159,486.01985436239437 M379.502619920159,486.01985436239437 L381.26398581850367,482.7498224748152 M381.26398581850367,482.7498224748152 L384.32462935914214,479.8191787374113 M384.32462935914214,479.8191787374113 L388.50651671921776,477.3980297233829 M388.50651671921776,477.3980297233829 L393.5665936097043,475.62686540939563 M393.5665936097043,475.62686540939563 L399.2109859447275,474.60840322956204 M399.2109859447275,474.60840322956204 L405.1119764031589,474.4017162927674 M405.1119764031589,474.4017162927674 L410.92701543372743,475.0187773419077 M410.92701543372743,475.0187773419077 L416.31852564465856,476.42381168944985 M416.31852564465856,476.42381168944985 L420.9734352546672,478.5353384844051 M386.2601958197296,418.54437703680605 L382.6093540941925,415.84923894591753 M382.6093540941925,415.84923894591753 L380.18097356538004,412.7276057032642 M380.18097356538004,412.7276057032642 L379.11591401956093,409.3610662452071 M379.11591401956093,409.3610662452071 L379.4756924649644,405.94535164593657 M379.4756924649644,405.94535164593657 L381.23902630026896,402.67894180591276 M381.23902630026896,402.67894180591276 L384.3030869380253,399.7515447550043 M384.3030869380253,399.7515447550043 L388.48964158239636,397.33307838911696 M388.48964158239636,397.33307838911696 L393.55536467892415,395.5638767657799 M393.55536467892415,395.5638767657799 L399.20605443254385,394.5465432682358 M399.20605443254385,394.5465432682358 L405.1136282531552,394.34008539430073 M405.1136282531552,394.34008539430073 L410.93515486693644,394.9564625872073 M410.93515486693644,394.9564625872073 L416.3326806747715,396.359939897094 M416.3326806747715,396.359939897094 L420.9927848774285,398.46912695982246" stroke="black"  stroke-width="4"  fill="red"/>
<path d="M628.5772162264446,278.4864396773669 L631.6340733610097,280.6221604547127 M631.6340733610097,280.6221604547127 L633.9112073395426,283.0591001885333 M633.9112073395426,283.0591001885333 L635.3210139862151,285.7036994969614 M635.3210139862151,285.7036994969614 L635.8091203350396,288.45441182020164 M635.8091203350396,288.45441182020164 L680.2570902810435,368.39821515972545 M680.2570902810435,368.39821515972545 L645.5444747894743,348.4455557476677 M628.5772162264446,278.4864396773669 L645.5444747894743,348.4455557476677 M635.8091203350396,288.45441182020164 L635.215674235929,291.59239908691154 M635.215674235929,291.59239908691154 L633.4242825639047,294.57354796387796 M633.4242825639047,294.57354796387796 L630.5244863420131,297.2482461424017 M630.5244863420131,297.2482461424017 L626.661590978761,299.482217728374 M626.661590978761,299.482217728374 L622.029287516345,301.16326488856686 M622.029287516345,301.16326488856686 L616.85997954987,302.2069074850295 M616.85997954987,302.2069074850295 L611.413144754411,302.5607210009941 M611.413144754411,302.5607210009941 L611.3314295563895,408.3701168294873 M611.3314295563895,408.3701168294873 L680.2570902810435,368.39821515972545 M611.413144754411,302.5607210009941 L606.6343686043313,302.2895686601733 M606.6343686043313,302.2895686601733 L602.036311574836,301.4865540814331 M602.036311574836,301.4865540814331 L597.7958453718945,300.18260412957505 M597.7958453718945,300.18260412957505 L594.076048568298,298.42792942737174 M594.076048568298,298.42792942737174 L576.6185363715135,388.3730565166548 M576.6185363715135,388.3730565166548 L611.3314295563895,408.3701168294873 M594.076048568298,298.42792942737174 L591.0199119089101,296.29008649196146 M591.0199119089101,296.29008649196146 L588.7448476822927,293.85135148283274 M588.7448476822927,293.85135148283274 L587.3381636903362,291.2055462671359 M587.3381636903362,291.2055462671359 L586.8537387777394,288.45441182020164 M586.8537387777394,288.45441182020164 L541.9442130679544,368.39821515972545 M541.9442130679544,368.39821515972545 L576.6185363715135,388.3730565166548 M586.8537387777394,288.45441182020164 L587.4513581892706,285.3169699235034 M587.4513581892706,285.3169699235034 L589.2461149015069,282.33736360088903 M589.2461149015069,282.33736360088903 L592.1477762053856,279.66488517578006 M592.1477762053856,279.66488517578006 L596.0106858654021,277.43338155207823 M596.0106858654021,277.43338155207823 L600.6411500075793,275.7545617610462 M600.6411500075793,275.7545617610462 L605.8071107610499,274.71245410557884 M605.8071107610499,274.71245410557884 L611.2497786060385,274.3591935689319 M611.2497786060385,274.3591935689319 L610.8703860631564,328.5150413516056 M610.8703860631564,328.5150413516056 L541.9442130679544,368.39821515972545 M611.2497786060385,274.3591935689319 L616.0248684288081,274.6299237878972 M616.0248684288081,274.6299237878972 L620.6197888762281,275.4317400632479 M620.6197888762281,275.4317400632479 L624.8581644840405,276.7338871360039 M624.8581644840405,276.7338871360039 L628.5772162264446,278.4864396773669 M645.5444747894743,348.4455557476677 L610.8703860631564,328.5150413516056" stroke="black"  stroke-width="4"  fill="red"/>
<path d="M320.3474891832903,496.6220852796752 L320.25451770899735,416.5358435604166 M250.77383592077436,536.8799145621444 L250.60300724404877,456.74916187681873 M320.3474891832903,496.6220852796752 L250.77383592077436,536.8799145621444 M320.25451770899735,416.5358435604166 L250.60300724404877,456.74916187681873 M240.5648733320809,566.0372899060355 L240.3824881016792,485.8743620254059 M250.77383592077436,536.8799145621444 L240.5648733320809,566.0372899060355 M250.60300724404877,456.74916187681873 L240.3824881016792,485.8743620254059 M247.11634487609675,579.2474835652674 L246.94122320786875,499.06999552741974 M240.5648733320809,566.0372899060355 L239.96424862260272,568.8819024563008 M239.96424862260272,568.8819024563008 L240.35402458513985,571.737780388363 M240.35402458513985,571.737780388363 L241.71866754102248,574.4898779126809 M241.71866754102248,574.4898779126809 L244.00340827461355,577.027229087237 M244.00340827461355,577.027229087237 L247.11634487609675,579.2474835652674 M240.3824881016792,485.8743620254059 L239.78117718269118,488.7158383574478 M239.78117718269118,488.7158383574478 L240.1713746825992,491.5685681544591 M240.1713746825992,491.5685681544591 L241.5375303852469,494.3176324217539 M241.5375303852469,494.3176324217539 L243.82481458352203,496.85218743952345 M243.82481458352203,496.85218743952345 L246.94122320786875,499.06999552741974 M269.8577013059227,583.0871978538 L269.7080085941948,502.9054797415101 M247.11634487609675,579.2474835652674 L250.9320794416513,581.0610694423256 M250.9320794416513,581.0610694423256 L255.2968542152219,582.3947714455305 M255.2968542152219,582.3947714455305 L260.03466453910397,583.1947547341836 M260.03466453910397,583.1947547341836 L264.9544014838565,583.4287216747803 M264.9544014838565,583.4287216747803 L269.8577013059227,583.0871978538 M246.94122320786875,499.06999552741974 L250.76121854476654,500.88158332885035 M250.76121854476654,500.88158332885035 L255.13087109695525,502.2138160870017 M255.13087109695525,502.2138160870017 L259.87397936953016,503.0129181434939 M259.87397936953016,503.0129181434939 L264.79922051138215,503.24662736219597 M264.79922051138215,503.24662736219597 L269.7080085941948,502.9054797415101 M320.16133843078336,577.2277255819458 L320.0679506511637,497.052463004401 M269.8577013059227,583.0871978538 L320.16133843078336,577.2277255819458 M269.7080085941948,502.9054797415101 L320.0679506511637,497.052463004401 M389.7351994972204,536.8799145621444 L389.71966961751804,456.74916187681873 M320.16133843078336,577.2277255819458 L389.7351994972204,536.8799145621444 M320.0679506511637,497.052463004401 L389.71966961751804,456.74916187681873 M389.7351994972204,536.8799145621444 L320.3474891832903,496.6220852796752 M389.71966961751804,456.74916187681873 L320.25451770899735,416.5358435604166" stroke="black"  stroke-width="4"  fill="red"/>
<path d="M73.61695870141494,349.42347628265645 L73.47029794501947,317.4757316963566 M144.51062500602993,338.47753272748895 L144.39550501453826,306.53466611576505 M73.61695870141494,349.42347628265645 L144.51062500602993,338.47753272748895 M73.47029794501947,317.4757316963566 L144.39550501453826,306.53466611576505 M22.094796652342154,319.53437059981 L21.9253802460633,287.5999528636264 M22.094796652342154,319.53437059981 L73.61695870141494,349.42347628265645 M21.9253802460633,287.5999528636264 L73.47029794501947,317.4757316963566 M163.7524180876172,297.6855491176313 L163.6459678107592,265.76088723873363 M144.51062500602993,338.47753272748895 L163.7524180876172,297.6855491176313 M144.39550501453826,306.53466611576505 L163.6459678107592,265.76088723873363 M163.7524180876172,297.6855491176313 L112.22951107627256,267.8824583060271 M112.22951107627256,267.8824583060271 L41.46544789041684,278.7853981993365 M41.46544789041684,278.7853981993365 L22.094796652342154,319.53437059981 M65.17845131945074,324.5315926303418 L72.56239073971557,327.8817338808445 M72.56239073971557,327.8817338808445 L81.1327772410724,330.1115242685449 M81.1327772410724,330.1115242685449 L90.39084775105857,331.0909469340378 M90.39084775105857,331.0909469340378 L99.79762586179237,330.7628683201924 M99.79762586179237,330.7628683201924 L108.8054298795252,329.1464334417545 M108.8054298795252,329.1464334417545 L116.88991880345077,326.33590965186835 M116.88991880345077,326.33590965186835 L123.58078715194779,322.49515095262615 M123.58078715194779,322.49515095262615 L128.4891979218126,317.8479375023733 M128.4891979218126,317.8479375023733 L131.330328331469,312.66486796558974 M131.330328331469,312.66486796558974 L131.9399098972276,307.247486775026 M131.9399098972276,307.247486775026 L130.28348970181952,301.9107032733337 M130.28348970181952,301.9107032733337 L126.45827845618771,296.96446684066154 M126.45827845618771,296.96446684066154 L120.6872639420701,292.69580331570694 M120.6872639420701,292.69580331570694 L113.3060681986056,289.3522303984594 M113.3060681986056,289.3522303984594 L104.74342286132077,287.1274969022049 M104.74342286132077,287.1274969022049 L95.4962861562692,286.15046414479644 M95.4962861562692,286.15046414479644 L86.10117259105874,286.47773537977594 M86.10117259105874,286.47773537977594 L77.10304889133033,288.09031819543975 M77.10304889133033,288.09031819543975 L69.02405635264785,290.89485920317514 M69.02405635264785,290.89485920317514 L62.33324655385536,294.7288569061285 M62.33324655385536,294.7288569061285 L57.4194430866973,299.3700799912749 M57.4194430866973,299.3700799912749 L54.56869888321472,304.549320223797 M54.56869888321472,304.549320223797 L53.947466891791294,309.9658788757783 M53.947466891791294,309.9658788757783 L55.5929117598389,315.30506745313653 M55.5929117598389,315.30506745313653 L59.41029418720893,320.25636836608714 M59.41029418720893,320.25636836608714 L65.17845131945074,324.5315926303418 M41.46544789041684,278.7853981993365 L41.304815462423505,246.86918507334337 M41.304815462423505,246.86918507334337 L21.9253802460633,287.5999528636264 M112.22951107627256,267.8824583060271 L112.10030415699646,235.9711230354087 M163.6459678107592,265.76088723873363 L112.10030415699646,235.9711230354087 M112.10030415699646,235.9711230354087 L41.304815462423505,246.86918507334337 M65.17845131945074,324.5315926303418 L65.92798710626374,483.7904694430121 M65.92798710626374,483.7904694430121 L73.29564238283609,487.14802348520817 M73.29564238283609,487.14802348520817 L81.84709146144576,489.3827469168511 M81.84709146144576,489.3827469168511 L91.08467481028742,490.36433619928715 M91.08467481028742,490.36433619928715 L100.47061078911634,490.035531843874 M100.47061078911634,490.035531843874 L109.45843338005568,488.4155210610548 M109.45843338005568,488.4155210610548 L117.52496652857303,485.5987790138275 M117.52496652857303,485.5987790138275 L124.20095035396992,481.74952109247266 M124.20095035396992,481.74952109247266 L129.09841287913287,477.0920213755704 M129.09841287913287,477.0920213755704 L131.933165614181,471.89747634311055 M131.933165614181,471.89747634311055 L132.54130703173968,466.4680973314651 M132.54130703173968,466.4680973314651 L130.88846355829537,461.11949095842573 M130.88846355829537,461.11949095842573 L127.0716338696061,456.16229370956694 M127.0716338696061,456.16229370956694 L121.31331565556229,451.884168431485 M121.31331565556229,451.884168431485 L113.94839203310562,448.533182706913 M113.94839203310562,448.533182706913 L105.40464999573032,446.3035161397767 M105.40464999573032,446.3035161397767 L96.17795211561383,445.3243167398322 M96.17795211561383,445.3243167398322 L86.80362911138121,445.6523137361758 M86.80362911138121,445.6523137361758 L77.82544394105423,447.26847244507104 M77.82544394105423,447.26847244507104 L69.76438274216525,450.07923174047573 M69.76438274216525,450.07923174047573 L63.088457078518445,453.92172869029486 M63.088457078518445,453.92172869029486 L58.185625604630445,458.5732380555983 M58.185625604630445,458.5732380555983 L55.34130153234514,463.7639538230699 M55.34130153234514,463.7639538230699 L54.72156116647881,469.1925102823038 M54.72156116647881,469.1925102823038 L56.363477923898586,474.54352173904664 M56.363477923898586,474.54352173904664 L60.17251349797505,479.5057834580671 M60.17251349797505,479.5057834580671 L65.92798710626374,483.7904694430121" stroke="black"  stroke-width="4"  fill="red"/>
<path d="M265.7779665677929,249.01370010375797 L265.6251357814355,169.20342990298911 M196.62204399241807,288.7202984059178 L196.39228895151734,208.8655180339112 M265.7779665677929,249.01370010375797 L196.62204399241807,288.7202984059178 M265.6251357814355,169.20342990298911 L196.39228895151734,208.8655180339112 M127.92460716987989,249.0136963212347 L127.61894560816103,169.20342612471072 M196.62204399241807,288.7202984059178 L127.92460716987989,249.0136963212347 M196.39228895151734,208.8655180339112 L127.61894560816103,169.20342612471072 M197.08002256350215,209.3949444754956 L196.85128356759705,129.6291831502246 M127.92460716987989,249.0136963212347 L197.08002256350215,209.3949444754956 M127.61894560816103,169.20342612471072 L196.85128356759705,129.6291831502246 M197.08002256350215,209.3949444754956 L265.7779665677929,249.01370010375797 M196.85128356759705,129.6291831502246 L265.6251357814355,169.20342990298911" stroke="black"  stroke-width="4"  fill="red"/>
<path d="M604.6092946156729,444.42093561637876 L604.8333253355042,364.39255920151385 M535.45332896287,484.56223794786075 L535.6004353049167,404.4893496770833 M604.6092946156729,444.42093561637876 L535.45332896287,484.56223794786075 M604.8333253355042,364.39255920151385 L535.6004353049167,404.4893496770833 M605.0578560681018,524.7931314016093 L605.2828884892986,444.67573190882644 M535.45332896287,484.56223794786075 L605.0578560681018,524.7931314016093 M535.6004353049167,404.4893496770833 L605.2828884892986,444.67573190882644 M674.2133217081386,484.56223794786075 L674.515276831287,404.4893496770833 M605.0578560681018,524.7931314016093 L674.2133217081386,484.56223794786075 M605.2828884892986,444.67573190882644 L674.515276831287,404.4893496770833 M674.2133217081386,484.56223794786075 L604.6092946156729,444.42093561637876 M674.515276831287,404.4893496770833 L604.8333253355042,364.39255920151385" stroke="black"  stroke-width="4"  fill="red"/>
<path d="M500.81749762627504,504.66646704885574 L500.9260127689407,424.5713230667847 M431.4298149731723,544.9422685819118 L431.4608886140379,464.80261382133756 M500.81749762627504,504.66646704885574 L431.4298149731723,544.9422685819118 M500.9260127689407,424.5713230667847 L431.4608886140379,464.80261382133756 M501.0347705119701,585.3081121483528 L501.14377166982274,505.12394775125875 M431.4298149731723,544.9422685819118 L501.0347705119701,585.3081121483528 M431.4608886140379,464.80261382133756 L501.14377166982274,505.12394775125875 M570.4222105647091,544.9422685819118 L570.6086524099023,464.80261382133756 M501.0347705119701,585.3081121483528 L570.4222105647091,544.9422685819118 M501.14377166982274,505.12394775125875 L570.6086524099023,464.80261382133756 M570.4222105647091,544.9422685819118 L500.81749762627504,504.66646704885574 M570.6086524099023,464.80261382133756 L500.9260127689407,424.5713230667847" stroke="black"  stroke-width="4"  fill="red"/>
<path d="M354.9241739519884,589.3496604432778 L354.86966117985315,509.1610451585007 M285.2101259298361,629.8148994431654 L285.0774411007885,549.5817761737553 M354.9241739519884,589.3496604432778 L285.2101259298361,629.8148994431654 M354.86966117985315,509.1610451585007 L285.0774411007885,549.5817761737553 M354.81502625024524,670.3708168497753 L354.76026875209095,590.0931874604969 M285.2101259298361,629.8148994431654 L354.81502625024524,670.3708168497753 M285.0774411007885,549.5817761737553 L354.76026875209095,590.0931874604969 M424.52919642987007,629.8148994431654 L424.552611399702,549.5817761737553 M354.81502625024524,670.3708168497753 L424.52919642987007,629.8148994431654 M354.76026875209095,590.0931874604969 L424.552611399702,549.5817761737553 M424.52919642987007,629.8148994431654 L354.9241739519884,589.3496604432778 M424.552611399702,549.5817761737553 L354.86966117985315,509.1610451585007" stroke="black"  stroke-width="4"  fill="red"/>
<path d="M417.53833948482594,565.1139162495122 L417.5538936774554,484.95200650659507 M382.7591712854853,585.3081121483528 L382.73581389451687,505.12394775125875 M417.53833948482594,565.1139162495122 L382.7591712854853,585.3081121483528 M417.5538936774554,484.95200650659507 L382.73581389451687,505.12394775125875 M431.4826815292761,613.6179394765475 L431.51387353921496,533.4026191966561 M382.7591712854853,585.3081121483528 L431.4826815292761,613.6179394765475 M382.73581389451687,505.12394775125875 L431.51387353921496,533.4026191966561 M466.2618314623126,593.3921124833494 L466.33193499444536,513.1990463260759 M431.4826815292761,613.6179394765475 L466.2618314623126,593.3921124833494 M431.51387353921496,533.4026191966561 L466.33193499444536,513.1990463260759 M466.2618314623126,593.3921124833494 L417.53833948482594,565.1139162495122 M466.33193499444536,513.1990463260759 L417.5538936774554,484.95200650659507" stroke="black"  stroke-width="4"  fill="red"/>
<path d="M708.0549651144435,384.3763119143345 L708.393740575449,304.4147037399775 M639.1295576844071,424.38378765200486 L639.3919220135399,344.37766729801695 M708.0549651144435,384.3763119143345 L639.1295576844071,424.38378765200486 M708.393740575449,304.4147037399775 L639.3919220135399,344.37766729801695 M708.7332708837384,464.4804066065595 L709.0735585650109,384.4297742055055 M639.1295576844071,424.38378765200486 L708.7332708837384,464.4804066065595 M639.3919220135399,344.37766729801695 L709.0735585650109,384.4297742055055 M777.6579234664907,424.38378765200486 L778.0746197539368,344.37766729801695 M708.7332708837384,464.4804066065595 L777.6579234664907,424.38378765200486 M709.0735585650109,384.4297742055055 L778.0746197539368,344.37766729801695 M777.6579234664907,424.38378765200486 L708.0549651144435,384.3763119143345 M778.0746197539368,344.37766729801695 L708.393740575449,304.4147037399775" stroke="black"  stroke-width="4"  fill="red"/></svg>