<svg version="1.1" xmlns="http://www.w3.org/2000/svg" viewBox="-34.38104660499513 -29.683371061904772 81.79149096697984 53.668219759621294" fill="none" stroke="black" stroke-width="0.6%" vector-effect="non-scaling-stroke">
    <path d="M -11.20381 -17.57273 L -11.20381 -19.93269 L -18.80761 -21.92366 L -25.3024 -19.59272 L -17.6986 -17.60175 L -11.20381 -19.93269" />
    <path d="M -25.3024 -17.03226 L -25.3024 -19.59272" />
    <path d="M -17.6986 -14.77442 L -17.6986 -17.60175" />
    <path d="M 16.37574 -5.20851 L 16.37574 -14.72706 L 23.97954 -12.73609 L 29.15572 -12.54555" />
    <path d="M 23.97954 -3.21754 L 23.97954 -12.73609" />
    <path d="M 16.37574 -5.20851 L 23.97954 -3.21754 L 29.15572 -3.027 A 2.5 0.76637 180 0 0 32.00807 -3.78572" />
    <path d="M 29.15572 -3.027 L 29.15572 -12.54555" />
    <path d="M 31.89759 -13.52959 A 2.5 0.76637 0 0 1 32.00807 -13.30427 A 2.5 0.76637 0 0 1 29.15572 -12.54555" />
    <path d="M 31.89759 -13.52959 L 30.47433 -15.06703 L 22.87052 -17.058 L 16.37574 -14.72706" />
    <path d="M -20.39148 -14.27533 A 5 1.53274 0 0 1 -11.58958 -13.27985 A 5 1.53274 0 0 1 -21.58958 -13.27985 A 5 1.53274 0 0 1 -20.39148 -14.27533 Z" />
    <path d="M -12.32153 -2.96287 A 5 1.53274 180 0 0 -11.58958 -3.7613" />
    <path d="M 4.93818 -21.75338 L 4.93818 -23.36598 L 12.54198 -21.37502 L 19.03676 -23.70595 L 11.43296 -25.69692 L 4.93818 -23.36598" />
    <path d="M 12.54198 -17.83094 L 12.54198 -21.37502" />
    <path d="M 11.60759 -12.10112 L 11.80047 -12.05062" />
    <path d="M 19.03676 -21.34599 L 19.03676 -23.70595" />
    <path d="M -10.41188 -23.75685 A 2.5 0.76637 0 0 1 -8.70698 -24.02312 A 2.5 0.76637 0 0 1 -6.03505 -23.3653 A 2.5 0.76637 0 0 1 -6.01863 -23.31921 A 2.5 0.76637 0 0 1 -6.60998 -22.76137 A 2.5 0.76637 0 0 1 -8.31488 -22.4951 A 2.5 0.76637 0 0 1 -11.00323 -23.19901 A 2.5 0.76637 0 0 1 -10.99282 -23.35119 A 2.5 0.76637 0 0 1 -10.41188 -23.75685 Z" />
    <path d="M -6.01863 -23.31921 L -1.46164 -13.91054 L -1.46164 -13.91054" />
    <path d="M -8.31488 -22.4951 L -7.95642 -11.57961" />
    <path d="M -11.00323 -23.19901 L -15.56022 -13.57058 L -15.56022 -13.57058" />
    <path d="M 16.34388 -17.72773 L 16.34388 -20.37953 L 23.94768 -18.38856 L 30.44246 -20.7195 L 22.83866 -22.71047 L 16.34388 -20.37953" />
    <path d="M 23.94768 -16.77596 L 23.94768 -18.38856" />
    <path d="M 30.44246 -19.06753 L 30.44246 -20.7195" />
    <path d="M -6.46753 -23.70063 L -6.46753 -26.35243 L 1.13627 -24.36147 L 7.63106 -26.6924 L 0.02726 -28.68337 L -6.46753 -26.35243" />
    <path d="M 1.13627 -22.00151 L 1.13627 -24.36147" />
    <path d="M 7.63106 -24.33244 L 7.63106 -26.6924" />
    <path d="M 12.39952 -17.78395 A 2.5 0.76637 0 0 1 16.80047 -17.28621 L 16.80047 -14.87949" />
    <path d="M 16.80047 -17.28621 A 2.5 0.76637 0 0 1 11.80047 -17.28621 L 11.80047 -7.76766 A 2.5 0.76637 180 0 0 16.37574 -7.34033" />
    <path d="M 11.80047 -17.28621 A 2.5 0.76637 0 0 1 12.39952 -17.78395" />
    <path d="M -0.26764 -0.49547 L -0.26764 -10.01402 L -1.93649 -11.45887 L -6.85272 -11.73825 L -10.10012 -10.57278 L -8.43127 -9.12793 L -3.51503 -8.84855 L -0.26764 -10.01402" />
    <path d="M -10.10012 -2.83663 L -10.10012 -10.57278" />
    <path d="M -8.43127 -1.42831 L -8.43127 -9.12793" />
    <path d="M -3.51503 0.67 L -3.51503 -8.84855" />
    <path d="M -7.55169 0.4406 L -3.51503 0.67 L -0.26764 -0.49547" />
    <path d="M 27.58323 -15.82403 L 27.58323 -18.04137 L 31.38513 -17.04588 L 35.93147 -18.67754 L 32.12957 -19.67302 L 27.58323 -18.04137" />
    <path d="M 31.38513 -14.08316 L 31.38513 -17.04588" />
    <path d="M 35.93147 -17.49756 L 35.93147 -18.67754" />
    <path d="M 32.00807 -7.7509 L 32.31186 -7.85993" />
    <path d="M 32.31186 -6.67995 L 32.31186 -16.1985 L 39.91566 -14.20753 L 46.41044 -16.53847 L 38.80664 -18.52944 L 32.31186 -16.1985" />
    <path d="M 39.91566 -4.68898 L 39.91566 -14.20753" />
    <path d="M 32.31186 -6.67995 L 39.91566 -4.68898 L 46.41044 -7.01992 L 46.41044 -16.53847" />
    <path d="M -2.49099 -11.49038 L -2.49099 -13.61982 L 5.11281 -11.62885 L 11.60759 -13.95979 L 4.00379 -15.95075 L -2.49099 -13.61982" />
    <path d="M 5.11281 -2.1103 L 5.11281 -11.62885" />
    <path d="M -0.26764 -3.51911 L 5.11281 -2.1103 L 11.60759 -4.44124 L 11.60759 -13.95979" />
    <path d="M -13.8967 -14.5713 L -13.8967 -16.60627 L -6.2929 -14.6153 L 0.20189 -16.94624 L -7.40191 -18.93721 L -13.8967 -16.60627" />
    <path d="M -6.2929 -11.70643 L -6.2929 -14.6153" />
    <path d="M -11.58958 -6.48363 L -10.10012 -6.09363" />
    <path d="M 0.20189 -14.58628 L 0.20189 -16.94624" />
    <path d="M -26.67787 -15.34941 L -26.67787 -15.73198 L -28.9707 -14.9091 L -30.27018 -15.24935 L -25.21833 -17.06243 L -23.91885 -16.72217 L -25.72331 -16.07457 L -25.10699 -15.91319 L -23.30253 -16.5608 L -22.00305 -16.22054 L -27.0549 -14.40747 L -28.35438 -14.74772 L -26.06154 -15.5706 L -26.67787 -15.73198" />
    <path d="M -28.9707 -11.19631 L -28.9707 -14.9091" />
    <path d="M -30.27018 -10.72993 L -30.27018 -15.24935" />
    <path d="M -23.91885 -16.3396 L -23.91885 -16.72217" />
    <path d="M -22.00305 -10.66579 L -22.00305 -16.22054" />
    <path d="M -27.0549 -11.88388 L -27.0549 -14.40747" />
    <path d="M -28.35438 -11.4175 L -28.35438 -14.74772" />
    <path d="M -19.28246 -2.58806 L -19.28246 -9.95343 L -25.77724 -7.6225 L -33.38105 -9.61346 L -26.88626 -11.9444 L -19.28246 -9.95343" />
    <path d="M -25.77724 1.89605 L -25.77724 -7.6225" />
    <path d="M -22.30041 0.64824 L -25.77724 1.89605 L -33.38105 -0.09491 L -33.38105 -9.61346" />
    <path d="M -4.15452 -18.08691 L -4.15452 -20.10267 L 3.44928 -18.11171 L 9.94406 -20.44264 L 2.34026 -22.43361 L -4.15452 -20.10267" />
    <path d="M 3.44928 -15.75174 L 3.44928 -18.11171" />
    <path d="M 9.94406 -14.39536 L 9.94406 -20.44264" />
    <path d="M 0.99382 -20.7704 A 2.5 0.76637 180 0 0 0.39477 -20.27266 A 2.5 0.76637 180 0 0 5.39477 -20.27266 A 2.5 0.76637 180 0 0 0.99382 -20.7704 Z" />
    <path d="M -7.55169 3.14062 L -7.55169 -0.6668 L -10.05496 -2.83407 L -17.42932 -3.25314 L -22.30041 -1.50494 L -19.79714 0.66234 L -12.42278 1.08141 L -7.55169 -0.6668" />
    <path d="M -12.42278 4.88883 L -12.42278 1.08141" />
    <path d="M -12.42278 4.88883 L -7.55169 3.14062" />
    <path d="M -22.30041 2.30248 L -19.79714 4.46976 L -19.79714 0.66234" />
    <path d="M -19.79714 4.46976 L -12.42278 4.88883" />
    <path d="M -22.30041 2.30248 L -22.30041 -1.50494" />
    <path d="M -11.88453 22.55504 A 4 1.22619 180 0 0 -10.92605 21.75865 L -10.92605 4.35166" />
    <path d="M -18.92605 21.75865 A 4 1.22619 180 0 0 -11.88453 22.55504" />
    <path d="M 32.00807 -13.30427 L 32.00807 -3.78572" />
    <path d="M -21.58958 -13.27985 L -21.58958 -10.55752" />
    <path d="M -11.58958 -13.27985 L -11.58958 -3.7613" />
    <path d="M -6.03505 -23.3653 C -6 -23.29 -5.97 -23.22 -5.93758 -23.15491 C -5.9 -23.09 -5.87 -23.02 -5.83846 -22.94722" />
    <path d="M -10.99282 -23.35119 C -11.02 -23.29 -11.04 -23.22 -11.07047 -23.15669 C -11.1 -23.09 -11.12 -23.03 -11.14912 -22.96409 C -11.18 -22.9 -11.2 -22.84 -11.22874 -22.77348 C -11.26 -22.71 -11.28 -22.65 -11.30929 -22.58495 C -11.34 -22.52 -11.36 -22.46 -11.39074 -22.39859 C -11.42 -22.34 -11.45 -22.28 -11.47305 -22.21448 C -11.5 -22.15 -11.53 -22.09 -11.55619 -22.03271 C -11.58 -21.97 -11.61 -21.91 -11.64011 -21.85335" />
    <path d="M -18.92605 21.75865 L -18.92605 4.51926" />
</svg>